<svg id="Layer_1" data-name="Layer 1" xmlns="http://www.w3.org/2000/svg" viewBox="0 0 1440 1818.03"><defs><style>.cls-1{fill:#231f20;}.cls-2,.cls-3{fill:#fff;}.cls-3{font-size:177.34px;font-family:|Raleway|Montserrat-Bold, |Raleway|Montserrat;font-weight:700;letter-spacing:-0.02em;}</style></defs><title>MooseHound</title><rect class="cls-1" width="1440" height="1818.03"/><path class="cls-2" d="M300.07,1246.2q9.4,9.93,9.4,26.78v60.47H277.91V1282q0-8.16-4.26-12.86t-11.53-4.7a16.68,16.68,0,0,0-13.21,6.12q-4.87,5.94-4.88,15.52v47.35H212.47V1282q0-8.16-4.26-12.86c-2.83-3.13-6.68-4.7-11.52-4.7a16.94,16.94,0,0,0-13.3,6.12q-5,5.94-5,15.52v47.35H147v-95.94h31.39v15.78a33.92,33.92,0,0,1,12.86-12.68,37.49,37.49,0,0,1,18.35-4.34q11.7,0,20,5.67a30.86,30.86,0,0,1,11.88,15.79q4.6-10.65,13.21-16t20.31-5.41Q290.67,1236.27,300.07,1246.2Z"/><path class="cls-2" d="M399.38,1242.56a44.74,44.74,0,0,1,18.44,17.2q6.57,11.09,6.56,25.63,0,14.71-6.56,25.8a44.61,44.61,0,0,1-18.44,17.2q-11.88,6.12-27.49,6.12t-27.48-6.12a44,44,0,0,1-18.36-17.2q-6.48-11.07-6.47-25.8,0-14.54,6.47-25.63a44.11,44.11,0,0,1,18.36-17.2q11.86-6.12,27.48-6.12T399.38,1242.56Zm-42.38,26q-5.69,6.57-5.68,17.2,0,10.83,5.68,17.38a18.7,18.7,0,0,0,14.89,6.56q9.41,0,15.08-6.56t5.67-17.38q0-10.63-5.76-17.2a19,19,0,0,0-15-6.56A18.73,18.73,0,0,0,357,1268.54Z"/><path class="cls-2" d="M512.52,1242.56a44.74,44.74,0,0,1,18.44,17.2q6.56,11.09,6.56,25.63,0,14.71-6.56,25.8a44.61,44.61,0,0,1-18.44,17.2q-11.88,6.12-27.49,6.12t-27.49-6.12a44,44,0,0,1-18.35-17.2q-6.48-11.07-6.47-25.8,0-14.54,6.47-25.63a44.15,44.15,0,0,1,18.35-17.2q11.88-6.12,27.49-6.12T512.52,1242.56Zm-42.39,26q-5.67,6.57-5.67,17.2,0,10.83,5.67,17.38a18.74,18.74,0,0,0,14.9,6.56q9.41,0,15.07-6.56t5.68-17.38q0-10.63-5.76-17.2a19,19,0,0,0-15-6.56A18.77,18.77,0,0,0,470.13,1268.54Z"/><path class="cls-2" d="M583.63,1258.08a12.47,12.47,0,0,0-6.56,1.51,4.94,4.94,0,0,0-2.49,4.52q0,3.2,3.91,5.14a71.91,71.91,0,0,0,12.41,4.26,155.58,155.58,0,0,1,17.11,5.94,31.4,31.4,0,0,1,11.8,8.87q5,5.94,5,15.51,0,14.55-11.26,22.79t-29.35,8.25a78.9,78.9,0,0,1-23.41-3.46,61.88,61.88,0,0,1-19.86-10.2l9.93-20.39a70.23,70.23,0,0,0,17.11,8.78,51.77,51.77,0,0,0,16.94,3.1,15.27,15.27,0,0,0,7.36-1.51,4.73,4.73,0,0,0,2.75-4.34q0-3.55-4-5.5a76.14,76.14,0,0,0-12.5-4.26,140.12,140.12,0,0,1-16.67-5.94,31.4,31.4,0,0,1-11.44-8.77q-4.89-5.87-4.88-15.26,0-14.53,11-22.78t28.37-8.25a77.12,77.12,0,0,1,39.9,11.17l-10.64,20.57Q595.52,1258.08,583.63,1258.08Z"/><path class="cls-2" d="M716.45,1250.28q12.6,13.83,12.59,38c0,2.48-.06,4.37-.17,5.67H662.19q2.29,8.16,8,12.5a22,22,0,0,0,13.83,4.35,30,30,0,0,0,12-2.48,33.89,33.89,0,0,0,10.55-7.27l16.5,16.49a48.71,48.71,0,0,1-18,12.68,62.14,62.14,0,0,1-23.86,4.34q-15.42,0-26.95-6a41.91,41.91,0,0,1-17.65-17q-6.12-11-6.12-25.54,0-14.72,6.21-26a42.92,42.92,0,0,1,17.56-17.38q11.34-6.12,26.24-6.12Q703.86,1236.44,716.45,1250.28Zm-18.08,26.77q0-8.33-4.88-13.38t-12.86-5.06a17.15,17.15,0,0,0-12.5,5q-5.05,5-6.65,13.47Z"/><path class="cls-2" d="M831.28,1246.2q9.48,9.93,9.49,26.78v60.47H809.2V1282q0-8.16-4.34-12.86t-12-4.7q-8.7.18-13.75,6.12t-5,15.52v47.35H742.52V1201.86h31.57v51.25a34.17,34.17,0,0,1,13.21-12.59,39.2,39.2,0,0,1,18.53-4.25Q821.79,1236.27,831.28,1246.2Z"/><path class="cls-2" d="M930.5,1242.56a44.8,44.8,0,0,1,18.44,17.2q6.55,11.09,6.56,25.63,0,14.71-6.56,25.8a44.68,44.68,0,0,1-18.44,17.2q-11.89,6.12-27.49,6.12t-27.49-6.12a44,44,0,0,1-18.35-17.2q-6.48-11.07-6.48-25.8,0-14.54,6.48-25.63a44.15,44.15,0,0,1,18.35-17.2q11.88-6.12,27.49-6.12T930.5,1242.56Zm-42.39,26q-5.67,6.57-5.67,17.2,0,10.83,5.67,17.38a18.72,18.72,0,0,0,14.9,6.56q9.39,0,15.07-6.56t5.68-17.38q0-10.63-5.77-17.2a19,19,0,0,0-15-6.56A18.76,18.76,0,0,0,888.11,1268.54Z"/><path class="cls-2" d="M1061.72,1237.51v95.94h-31.56v-15.61q-9.77,16.68-30.68,17-15.62,0-24.92-10t-9.31-26.69v-60.65h31.57v51.6q0,8.16,4.17,12.77t11.26,4.61q8.32-.16,13.12-6.11t4.79-15.52v-47.35Z"/><path class="cls-2" d="M1170.87,1246.2q9.5,9.93,9.49,26.78v60.47H1149V1282q0-8.16-4.43-12.86t-11.88-4.7a18.22,18.22,0,0,0-12.86,5.15,20.88,20.88,0,0,0-5.94,13.12v50.72h-31.57v-95.94h31.57v15.6a34.17,34.17,0,0,1,13.21-12.59,39.2,39.2,0,0,1,18.53-4.25Q1161.38,1236.27,1170.87,1246.2Z"/><path class="cls-2" d="M1295.1,1201.86v131.59h-31.57V1321a32.31,32.31,0,0,1-12.15,10.2,36.85,36.85,0,0,1-16.22,3.46,43.81,43.81,0,0,1-23.41-6.21,41.72,41.72,0,0,1-15.7-17.47q-5.58-11.25-5.58-26,0-14.55,5.49-25.54a40.75,40.75,0,0,1,15.43-17,43.64,43.64,0,0,1,23.06-6A37.8,37.8,0,0,1,1251,1240a35.21,35.21,0,0,1,12.5,10.11v-48.24Zm-37.24,101.35q5.67-6.64,5.67-17.29,0-10.82-5.67-17.38a20.21,20.21,0,0,0-29.89.09q-5.76,6.64-5.76,17.29t5.76,17.29a18.88,18.88,0,0,0,15,6.65A18.63,18.63,0,0,0,1257.86,1303.21Z"/><text class="cls-3" transform="translate(701.81 1333.45)"> </text><path class="cls-2" d="M924.16,858.85v0a64.38,64.38,0,0,0,64.5-64.48h0V729.9H967.15v21.49c0,23.4-27.17,43-43,43l-98.5,0L761.19,729.9h34c15.63,0,29.14-9.17,36.65-21.49h27.83v0c24,0,43.56-21.65,43.56-43V558H881.18v43a21.51,21.51,0,0,1-21.49-21.56v-43h-21.5V558h-43V515H773.72V654.59h0a10.82,10.82,0,0,1-10.62,10.84H591.18a11.09,11.09,0,0,1-10.89-10.89V515H558.8v43H515.93l-.11.12V536.37H494.33v43.08h0c0,6.51-15.59,21.46-21.54,21.46V558H451.34V665.43h0a43,43,0,0,0,43,43h27.24a43,43,0,0,0,37.23,21.5h2.79a86.72,86.72,0,0,0-2.79,21.88h0V848a32.46,32.46,0,0,0,32.47,32.38h32l0,171.94h64.48v-129h21.5v129h64.47v-129h21.93c3.15,21.85,23.17,43,42.54,43v86H945.68v-129h-9.94c-5.86,0-11.58-5-11.58-10.88V858.85Zm0-43c13.93,0,30.21-7.45,42.93-19.37a42.75,42.75,0,0,1-42.93,40.86h-3.71a64.14,64.14,0,0,0-12.82-21.49ZM558.8,708.42h0a21.48,21.48,0,0,1-21.43-21.49h-.06v-43H515.82v43H494.33v-.06a21.43,21.43,0,0,1-21.43-21.43h-.07v-43c17.86,0,43-24.58,43-43h43v75.09a32.4,32.4,0,0,0,29.36,32.24,86.41,86.41,0,0,0-17.75,21.64Zm107.46,322.36H644.77l0-123.72a64,64,0,0,0,21.47,12.65Zm171.93-86c-9.37,0-21.49-9.48-21.49-21.5h21.49Zm43,86H859.67v-64.5l0,0v-5.58a42.5,42.5,0,0,0,21.5,5.81Zm43,0H903.25v-86h-22A21.28,21.28,0,0,1,859.7,924V880.34H838.19v21.49H773.72v-43H752.23v171.93h-21.5V901.83h-43a42.59,42.59,0,0,1-39-24.7c10.55-5.24,17.51-16.33,17.51-29.17v-31H644.77v31c0,5.86-4,10.89-9.9,10.89h-43.6a11.17,11.17,0,0,1-11-10.89V751.78c0-35.44,29.05-64.87,64.48-64.87H763.08V687a32.17,32.17,0,0,0,32.13-32.38h0V579.45h43a43,43,0,0,0,43,43.07v42.9c0,9.4-9.41,21.48-21.49,21.48V687h-21.5v-43H816.7v43c0,9.41-9.4,21.48-21.49,21.48v0H687.75V783.2h0a32.62,32.62,0,0,0,32.38,32.66h32.1V751.39h0l64.5,64.51,0,0h43c23.82,0,43.53,19.29,43.53,43v53.59a32.43,32.43,0,0,0,20.91,30.24ZM730.75,751.39v43H720.13c-5.86,0-10.89-5.3-10.89-11.16V729.9a21.61,21.61,0,0,1,21.5,21.49Z"/></svg>